# xmcd
# 
# Track frame offsets:
#     150
#     17283
#     30766
#     48681
#     71163
#     84787
#     101758
#     121339
#     134376
#     155635
#     169346
#     183596
#     202549
#     222688
#     239001
#     252607
# 
# Disc length: 3595
# 
# Revision: 0
# Processed by: cddbd v1.5.2PL0 Copyright (c) Steve Scherf et al.
# Submitted via: fre:ac v1.0.17
# 
DISCID=e10e0910
DTITLE=Various Artist - COUNTRY HEAT 2014
DYEAR=2013
DGENRE=Country
TTITLE0=Blake Shelton feat. Pistol Annies and Friends - Boys 'Round Here
TTITLE1=Miranda Lambert - Mama's Broken Heart
TTITLE2=Hunter Hayes - I Want Crazy
TTITLE3=Carrie Underwood - Two Black Cadillacs
TTITLE4=Brett Eldredge - Don't Ya
TTITLE5=Kenny Chesney - Pirate Flag
TTITLE6=Brett Kissell - Started With A Song
TTITLE7=Blackjack Billy - The Booze Cruise
TTITLE8=Brad Paisley - Beat This Summer
TTITLE9=Zac Brown Band - Jump Right In
TTITLE10=Chris Young - Aw Naw
TTITLE11=Sheryl Crow - Easy
TTITLE12=Gloriana - Can't Shake You
TTITLE13=Tyler Farr - Redneck Crazy
TTITLE14=Gord Bamford - When Your Lips Are So Close
TTITLE15=Jason Benoit - This Is What It Feels Like
EXTD=
EXTT0=
EXTT1=
EXTT2=
EXTT3=
EXTT4=
EXTT5=
EXTT6=
EXTT7=
EXTT8=
EXTT9=
EXTT10=
EXTT11=
EXTT12=
EXTT13=
EXTT14=
EXTT15=
PLAYORDER=
